<svg xmlns="http://www.w3.org/2000/svg" viewBox="0 0 100 100" width="100px" height="100px">
  <path d="M40.5,100c-4.687,0-8.5-3.813-8.5-8.5v-3c0-4.363,3.305-7.97,7.543-8.446 l-1.06-1.041c-0.636,0.153-1.3,0.232-1.981,0.232c-0.424,0-0.873-0.025-1.457-0.112c-1.021,0.456-2.126,0.692-3.256,0.692 c-1.751,0-3.448-0.574-4.835-1.627c-1.915-0.815-3.419-2.279-4.299-4.072c-0.656-2.626-5.739-4.319-5.739-8.04v-2.309 c0-0.856,0.127-1.697,0.373-2.498c-0.374-1.389-0.394-2.872-0.028-4.313l0.477-1.878c0.535-2.104,1.838-3.905,3.669-5.073 l4.573-3.037c-0.575-0.71-1.033-1.508-1.354-2.364c-2.093-1.548-3.375-3.98-3.43-6.653l-0.103-4.965 c-0.022-1.109,0.177-2.21,0.573-3.235c-0.064-0.421-0.097-0.848-0.097-1.277v-1.497c0-1.743,0.526-3.422,1.522-4.854l1.333-1.916 c0.266-0.382,0.563-0.74,0.886-1.071c0-0.007-0.052-2.555-0.052-2.555c-0.063-3.03,1.526-5.86,4.06-7.42 c1.227-1.802,3.109-3.059,5.212-3.523c1.146-0.737,2.459-1.191,3.843-1.313l3.416-0.306c0.292-0.022,0.516-0.03,0.73-0.03 c0.276,0,0.551,0.014,0.823,0.041c1.257-1.065,2.82-1.76,4.521-1.955l1.435-0.167c0.352-0.038,0.665-0.056,0.979-0.056 c0.689,0,1.37,0.083,2.031,0.245c0.496-0.089,1-0.134,1.506-0.134c0.133,0,0.332,0.006,0.464,0.013l1.533,0.079 c1.601,0.082,3.119,0.617,4.398,1.502l5.002,1.496c1.402,0.575,2.635,1.516,3.553,2.741l0.075,0.101l0.671,0.302 C70.5,12,71.5,14,73,15c0.336,0.331,1.976-0.135,2.253,0.248c0.495,0.404,0.94,0.861,1.329,1.362c0.82,0.407,1.57,0.946,2.218,1.601 c2.128,1.356,3.576,3.616,3.88,6.165l0.147,1.237c0.287,2.395-0.449,4.759-1.995,6.551v3.792c0,1.505-0.404,2.972-1.148,4.254 c-0.166,1.636-0.8,3.162-1.848,4.428c-0.479,0.99-1.147,1.881-1.966,2.619c-0.994,1.316-2.34,2.306-3.861,2.863 c-1.121,1.604-2.745,2.762-4.622,3.297h0.005c1.439,0,2.848,0.374,4.09,1.056l0.139-0.029c0.567-0.118,1.151-0.178,1.733-0.178 c1.688,0,3.322,0.496,4.725,1.435l4.663,3.118c1.745,1.165,2.994,2.931,3.513,4.969l0.472,1.854 c0.349,1.375,0.349,2.782,0.021,4.115c0.22,0.761,0.333,1.553,0.333,2.354v2.309c0,3.721-2.403,6.891-5.739,8.04 c-0.88,1.794-2.385,3.258-4.299,4.072c-1.391,1.055-3.085,1.627-4.835,1.627c-0.072,0-0.145-0.001-0.217-0.003 C71.998,88.27,72,88.385,72,88.5v3c0,4.687-3.813,8.5-8.5,8.5H40.5z" opacity=".35" />
  <path fill="#f2f2f2" d="M38.5,98c-4.687,0-8.5-3.813-8.5-8.5v-3c0-4.363,3.305-7.97,7.543-8.446l-1.06-1.041 c-0.636,0.153-1.3,0.232-1.981,0.232c-0.424,0-0.873-0.025-1.457-0.112c-1.021,0.456-2.126,0.692-3.256,0.692 c-1.751,0-3.448-0.574-4.835-1.627c-1.915-0.815-3.419-2.279-4.299-4.072c-3.336-1.148-5.739-4.319-5.739-8.04v-2.309 c0-0.856,0.127-1.697,0.373-2.498c-0.374-1.389-0.394-2.872-0.028-4.313l0.477-1.878c0.535-2.104,1.838-3.905,3.669-5.073 l4.573-3.037c-0.575-0.71-1.033-1.508-1.354-2.364c-2.093-1.548-3.375-3.98-3.43-6.653l-0.103-4.965 c-0.022-1.109,0.177-2.21,0.573-3.235c-0.064-0.421-0.097-0.848-0.097-1.277v-1.497c0-1.743,0.526-3.422,1.522-4.854l1.333-1.916 c0.266-0.382,0.563-0.74,0.886-1.071c0-0.007-0.052-2.555-0.052-2.555c-0.063-3.03,1.526-5.86,4.06-7.42 c1.227-1.802,3.109-3.059,5.212-3.523c1.146-0.737,2.459-1.191,3.843-1.313l3.416-0.306c0.292-0.022,0.516-0.03,0.73-0.03 c0.276,0,0.551,0.014,0.823,0.041c1.257-1.065,2.82-1.76,4.521-1.955l1.435-0.167c0.352-0.038,0.665-0.056,0.979-0.056 c0.689,0,1.37,0.083,2.031,0.245c0.496-0.089,1-0.134,1.506-0.134c0.133,0,0.332,0.006,0.464,0.013l1.533,0.079 c1.601,0.082,3.119,0.617,4.398,1.502l2.043-2.449l2.959,3.945c1.402,0.575,2.635,1.516,3.553,2.741l0.075,0.101l0.671,0.302 c2.514,1.131,4.263,3.385,4.821,5.969c0.336,0.331,0.646,0.69,0.923,1.073c0.495,0.404,0.94,0.861,1.329,1.362 c0.82,0.407,1.57,0.946,2.218,1.601c2.128,1.356,3.576,3.616,3.88,6.165l0.147,1.237c0.287,2.395-0.449,4.759-1.995,6.551v3.792 c0,1.505-0.404,2.972-1.148,4.254c-0.166,1.636-0.8,3.162-1.848,4.428c-0.479,0.99-1.147,1.881-1.966,2.619 c-0.994,1.316-2.34,2.306-3.861,2.863c-1.121,1.604-2.745,2.762-4.622,3.297h0.005c1.439,0,2.848,0.374,4.09,1.056l0.139-0.029 c0.567-0.118,1.151-0.178,1.733-0.178c1.688,0,3.322,0.496,4.725,1.435l4.663,3.118c1.745,1.165,2.994,2.931,3.513,4.969 l0.472,1.854c0.349,1.375,0.349,2.782,0.021,4.115c0.22,0.761,0.333,1.553,0.333,2.354v2.309c0,3.721-2.403,6.891-5.739,8.04 c-0.88,1.794-2.385,3.258-4.299,4.072c-1.391,1.055-3.085,1.627-4.835,1.627c-0.072,0-0.145-0.001-0.217-0.003 C69.998,86.27,70,86.385,70,86.5v3c0,4.687-3.813,8.5-8.5,8.5H38.5z" />
  <path fill="#d47f56" d="M36.5,89.5v-3c0-1.105,0.895-2,2-2h3.492c1.384,0,2.504-1.124,2.5-2.508l-0.159-51.159h11.333 l-0.159,51.159c-0.004,1.384,1.116,2.508,2.5,2.508H61.5c1.105,0,2,0.895,2,2v3c0,1.105-0.895,2-2,2h-23 C37.395,91.5,36.5,90.605,36.5,89.5z" />
  <rect width="23.963" height="7.167" x="44.417" y="72.191" fill="#d47f56" transform="rotate(-38.639 56.399 75.775)" />
  <rect width="7.167" height="26.15" x="39.636" y="55.646" fill="#d47f56" transform="rotate(-45.001 43.22 68.722)" />
  <path fill="#96c362" d="M28.252,70.472l-2.07-0.677l0.204-2.819l-0.756-1.059l-4.213,0.333v-5.657l2.214-1.212l-2.462-1.27 l1.075-4.227l6.034-3.571l3.07,0.639h1.317l0.779-1.369h3.358l0.623,1.229h2.049c0.52,0,1.004,0.233,1.329,0.64 c0.232,0.291,0.371,0.659,0.416,1.104l1.947,0.524v4.823l-1.743,0.593l1.055,1.964l-2.233,1.208l-1.711,2.027l0.801,2.297 l-2.855-0.196l0.372,3.006l-0.628-0.046l0.167,0.221l-0.396,0.896c-0.102,0.205-0.509,0.873-1.494,0.873 c-0.563,0-1.69-0.274-2.588-0.52l-2.257,1.479L28.252,70.472z" />
  <path fill="#96c362" d="M68.085,78.559c-0.898,0.246-2.026,0.521-2.589,0.521c-0.983,0-1.392-0.668-1.493-0.873l-0.413-0.834 l0.206-0.284l-0.648,0.047l-1.159-3.16l-2.117-0.027l1.059-2.243l-0.766-1.607l-2.643-1.305l1.054-1.964l-1.743-0.593v-4.823 l1.947-0.524c0.046-0.444,0.185-0.813,0.417-1.104c0.324-0.406,0.809-0.64,1.328-0.64h2.05l0.623-1.229h3.357l0.779,1.368h1.317 l3.116-0.648l5.999,4.012l1.094,4.298l-2.253,0.897l1.975,1.082v5.657L74.37,74.25l-0.757,1.059l0.204,2.819l-2.071,0.677 l-1.405,1.233L68.085,78.559z" />
  <path fill="#96c362" d="M33.622,45.373l0.233-2.522l-0.131-0.101l-0.379,1.205l-4.688-3.229l-0.111-1.646l-1.27-0.624v-0.713 l-1.547-0.233l-0.174-9.281l2.312,0.102l-1.795-1.349v-3.124l2.287-3.287h1.357l0.246-2.534l-0.121-0.031l-0.111-5.427l2.127-0.858 l1.473-2.465l1.931,0.315l0.391-1.147l6.324-0.564l0.289,1.562l0.373,0.044l0.108-1.371h2.019l0.454-1.892l3.903-0.452l0.856,1.028 l0.142-0.896l4.512,0.232l1.007,1.979l1.696,0.233l0.646,1.269l0.058-0.017L60,8.5l2.64,2.144L66,12.5l-0.139,2.108l1.023,0.559 l-0.05,0.53L68,16l0.288,1.353L69.5,18l0.418,1.737L72,20v1l2,0.5l0.503,3.455l-2.17,1.826V35.8l-1.268,0.104l0.403,3.234h-1.211 l0.268,1.393l-1.416,0.167c0.02,0-0.157,0.092-0.254,0.407l-0.358,1.176l-2.586-0.255l-0.609,1.296l-0.988,1.743l-3.583,0.587 l-1.298-1.134l-1.671-0.273l-2.84,3.167l-0.104-2.39L54,43l-2.209,3.839L46,46.917L42,48.5l-2.114-2.261l-0.638,0.209l-1.131,3.11 L33.622,45.373z" />
  <path fill="#40396e" d="M79.27,67.86c0.63-0.82,0.88-1.92,0.61-2.99l-0.47-1.85c-0.21-0.84-0.73-1.56-1.45-2.05l-4.66-3.11 c-0.58-0.39-1.25-0.59-1.95-0.59c-0.23,0-0.47,0.02-0.71,0.07l-2.14,0.45h-0.33c-0.66-0.86-1.68-1.37-2.78-1.37h-0.96 c-1.05,0-2.01,0.45-2.67,1.23h-1.23c-0.92,0-1.8,0.39-2.4,1.08c-0.21,0.23-0.36,0.47-0.48,0.71l-0.39,0.06 c-0.09,0.01-0.17,0.03-0.26,0.05V47.1c0.26-0.15,0.51-0.34,0.72-0.57l0.06-0.06l0.55-0.61l0.44,0.07l0.26,0.23 c0.64,0.56,1.46,0.86,2.31,0.86c0.19,0,0.38-0.01,0.56-0.04l1.71-0.28c1.05-0.17,1.95-0.8,2.48-1.73l0.48-0.84 c0.04-0.07,0.09-0.17,0.12-0.24l0.13-0.27c0.09,0.01,0.21,0.01,0.29,0.01c1.26,0,2.42-0.69,3.04-1.79c0.69-0.48,1.19-1.17,1.41-1.96 c0.1-0.08,0.19-0.17,0.28-0.27c0.63-0.66,0.94-1.55,0.88-2.5c0-0.06-0.01-0.13-0.02-0.19l-0.04-0.36c0.72-0.64,1.17-1.58,1.17-2.6 v-5.98l0.81-0.68c0.91-0.76,1.36-1.92,1.22-3.09l-0.14-1.24c-0.16-1.28-0.99-2.33-2.11-2.81c-0.55-0.78-1.4-1.3-2.41-1.4 c-0.28-0.87-0.88-1.58-1.66-2.01c-0.35-0.76-0.97-1.37-1.74-1.71c-0.09-0.17-0.21-0.33-0.33-0.48l0.01-0.05 c0.25-1.56-0.58-3.1-2.02-3.74l-1.85-0.84L62.76,8.8c-0.66-0.88-1.7-1.4-2.8-1.4c-0.64,0-1.26,0.17-1.8,0.49 c-0.44-0.34-0.97-0.58-1.54-0.67l-0.13-0.25c-0.56-1.12-1.69-1.85-2.94-1.91l-1.56-0.08c-0.05-0.01-0.13-0.01-0.18-0.01 c-0.6,0-1.17,0.15-1.67,0.43c-0.55-0.35-1.2-0.54-1.86-0.54c-0.14,0-0.27,0.01-0.41,0.02l-1.44,0.17c-1.29,0.15-2.38,1.01-2.85,2.2 c-0.35,0.1-0.69,0.27-0.98,0.48C42.03,7.26,41.31,7,40.52,7c-0.09,0-0.19,0-0.29,0.01l-3.42,0.3c-0.89,0.08-1.7,0.5-2.28,1.14h-0.18 c-1.23,0-2.38,0.65-3.01,1.7l-0.51,0.87l-0.38,0.15c-1.34,0.54-2.22,1.88-2.19,3.32l0.05,2.54c0.01,0.6,0.18,1.17,0.47,1.66 c-0.19,0.32-0.34,0.66-0.42,1.04c-0.73,0.23-1.38,0.7-1.83,1.34l-1.33,1.92c-0.41,0.59-0.63,1.28-0.63,2v1.49 c0,0.67,0.19,1.32,0.54,1.87c0,0.01-0.01,0.01-0.02,0.02c-0.65,0.67-1.02,1.59-1,2.52l0.11,4.97c0.02,1.34,0.81,2.51,1.96,3.07 c0.23,0.42,0.55,0.79,0.95,1.07c0.1,1.02,0.64,1.93,1.49,2.51l1.93,1.33c0.51,0.36,1.08,0.58,1.68,0.62 c-0.04,1.01,0.37,1.99,1.11,2.68l0.48,0.45c-0.37,0.22-0.7,0.51-0.97,0.86H32.5L30.34,48c-0.23-0.05-0.47-0.07-0.71-0.07 c-0.63,0-1.24,0.17-1.78,0.49c-0.05,0.02-0.09,0.05-0.13,0.08l-5.62,3.73c-0.75,0.48-1.3,1.23-1.51,2.09l-0.48,1.88 c-0.3,1.15,0.01,2.33,0.76,3.18c-0.6,0.64-0.95,1.49-0.95,2.4v2.31c0,1.93,1.57,3.5,3.5,3.5c0.08,0,0.19-0.01,0.27-0.02l1.16-0.09 l-0.05,0.65c-0.12,1.6,0.87,3.08,2.4,3.58l0.29,0.09l0.32,0.28c0.56,0.49,1.27,0.74,1.98,0.74c0.57,0,1.14-0.16,1.64-0.49l0.75-0.49 c1.58,0.41,2.07,0.41,2.32,0.41c1.17,0,2.17-0.56,2.73-1.51L43,76.4V82c0,0.55-0.45,1-1,1h-3.5c-1.93,0-3.5,1.57-3.5,3.5v3 c0,1.93,1.57,3.5,3.5,3.5h23c1.93,0,3.5-1.57,3.5-3.5v-3c0-1.93-1.57-3.5-3.5-3.5H58c-0.55,0-1-0.45-1-1v-0.31l5.13-4.02 c0.08,0.06,0.15,0.13,0.23,0.18c0.04,0.35,0.14,0.7,0.3,1.02c0.53,1.07,1.59,1.71,2.84,1.71c0.25,0,0.74,0,2.32-0.4l0.75,0.49 c0.5,0.33,1.07,0.49,1.64,0.49c0.71,0,1.42-0.25,1.98-0.75l0.32-0.27l0.29-0.1c1.53-0.5,2.52-1.97,2.4-3.58l-0.05-0.64l1.16,0.09 c0.08,0,0.19,0.01,0.27,0.01c1.93,0,3.5-1.57,3.5-3.5v-2.31C80.08,69.28,79.79,68.48,79.27,67.86z M77.08,72.42 c0,0.28-0.22,0.5-0.5,0.5h-0.04l-2.61-0.21h-0.04c-0.16,0-0.32,0.08-0.41,0.21l-1.3,1.81c-0.06,0.1-0.1,0.21-0.09,0.33l0.12,1.62 c0.02,0.23-0.13,0.44-0.34,0.51l-0.78,0.25c-0.07,0.02-0.13,0.06-0.18,0.1l-0.7,0.62l-1.68-1.11c-0.09-0.05-0.18-0.08-0.28-0.08 c-0.04,0-0.09,0.01-0.13,0.02c-0.57,0.16-2.13,0.59-2.62,0.59c-0.13,0-0.19-0.03-0.14-0.1c0.18-0.24,0.36-0.88,0.49-1.39 c0.07-0.32-0.17-0.62-0.49-0.62h-0.04l-0.84,0.06c-0.02,0.01-0.03,0.01-0.04,0.01c-0.2,0-0.38-0.12-0.46-0.31l-0.37-0.88 c-0.07-0.18-0.24-0.3-0.43-0.31l-1.19-0.07l-7.8,6.11C54.07,80.17,54,80.32,54,80.47V82c0,2.21,1.79,4,4,4h3.5 c0.28,0,0.5,0.22,0.5,0.5v3c0,0.28-0.22,0.5-0.5,0.5h-23c-0.28,0-0.5-0.22-0.5-0.5v-3c0-0.28,0.22-0.5,0.5-0.5H42c2.21,0,4-1.79,4-4 v-6.64c0-0.14-0.05-0.26-0.15-0.36l-9.37-9.2l-0.46,1.09c-0.08,0.19-0.26,0.31-0.46,0.31h-0.04l-0.84-0.06h-0.04 c-0.32,0-0.56,0.3-0.49,0.62c0.13,0.5,0.31,1.15,0.49,1.38c0.05,0.08-0.01,0.11-0.14,0.11c-0.49,0-2.05-0.43-2.62-0.59 c-0.04-0.01-0.09-0.02-0.13-0.02c-0.1,0-0.19,0.03-0.28,0.08l-1.68,1.1l-0.7-0.61c-0.05-0.05-0.11-0.08-0.18-0.1l-0.78-0.26 c-0.21-0.07-0.36-0.28-0.34-0.51l0.12-1.62c0.01-0.11-0.03-0.23-0.09-0.32l-1.3-1.82c-0.09-0.13-0.25-0.21-0.41-0.21 c-0.01,0-0.02,0.01-0.04,0.01l-2.61,0.2c-0.02,0.01-0.03,0.01-0.04,0.01c-0.28,0-0.5-0.23-0.5-0.5v-2.31c0-0.19,0.1-0.35,0.26-0.44 l2.14-1.17c0.06-0.04,0.12-0.09,0.17-0.15l0.71-1l-2.93-1.51c-0.21-0.11-0.31-0.34-0.26-0.57l0.48-1.88 c0.04-0.13,0.12-0.24,0.23-0.31L29.37,51c0.08-0.05,0.17-0.07,0.26-0.07c0.03,0,0.07,0,0.1,0.01l2.41,0.5 c0.04,0.01,0.07,0.01,0.11,0.01h2c0.18,0,0.34-0.09,0.43-0.25l0.49-0.86c0.09-0.16,0.26-0.26,0.44-0.26h0.96 c0.19,0,0.36,0.11,0.45,0.28l0.35,0.68c0.08,0.17,0.25,0.27,0.44,0.27h2.66c0.3,0,0.29,0.55,0.24,0.95 c-0.04,0.24,0.12,0.47,0.36,0.54l1.23,0.33c0.22,0.06,0.37,0.26,0.37,0.48v1.86c0,0.22-0.14,0.41-0.34,0.47l-1.72,0.59 c-0.17,0.08-0.23,0.17-0.18,0.29l0.06,0.24l1.11,2.06c0.08,0.17,0.07,0.36-0.03,0.51l-1.32,2.04l4.9,4.68 c0.1,0.1,0.22,0.15,0.35,0.15c0.25,0,0.5-0.2,0.5-0.5V46.92h-3.44c-0.15,0-0.3-0.07-0.39-0.2l-0.98-1.25 c-0.05-0.07-0.09-0.14-0.1-0.22l-0.2-1.07c-0.02-0.07-0.06-0.13-0.13-0.15l-0.72-0.24c-0.03,0-0.05-0.01-0.08-0.01 c-0.13,0-0.24,0.09-0.32,0.2l-0.37,0.73c-0.06,0.12-0.17,0.21-0.29,0.25l-0.66,0.21c-0.15,0.05-0.26,0.16-0.32,0.31l-0.32,1.01 c-0.06,0.22-0.13,0.32-0.22,0.32s-0.2-0.09-0.36-0.24l-1.74-1.63c-0.11-0.1-0.17-0.25-0.15-0.41l0.19-2.09 c0.02-0.17-0.06-0.34-0.19-0.45l-0.85-0.64c-0.01-0.01-0.03-0.03-0.04-0.04l-1.09-1.07c-0.06-0.06-0.12-0.09-0.17-0.09 c-0.06,0-0.1,0.05-0.14,0.14l-0.31,1.01c-0.05,0.12-0.09,0.17-0.16,0.17c-0.05,0-0.12-0.03-0.22-0.1l-1.93-1.33 c-0.12-0.09-0.2-0.23-0.21-0.38L30,38.4c-0.01-0.17-0.12-0.33-0.28-0.41l-0.8-0.4c-0.09-0.03-0.15-0.09-0.14-0.24v-0.69 c-0.01-0.12-0.06-0.2-0.2-0.23l-0.96-0.15c-0.24-0.04-0.42-0.24-0.42-0.49l-0.11-4.96c0-0.28,0.22-0.51,0.5-0.51h0.03l2.02,0.09 c0.07,0,0.13-0.03,0.17-0.11l0.33-0.66c0.06-0.12,0.06-0.23-0.03-0.41l-0.43-0.85c-0.03-0.07-0.08-0.13-0.15-0.17l-1.76-1.33 c-0.13-0.09-0.2-0.24-0.2-0.4v-1.49c0-0.11,0.03-0.21,0.09-0.29l1.33-1.91c0.1-0.14,0.25-0.22,0.41-0.22h1.22 c0.26,0,0.48-0.19,0.5-0.45l0.16-1.69c0.02-0.16,0.1-0.27,0.24-0.27c0.03,0,0.05,0,0.08,0.01l0.92,0.3 c0.02,0.01,0.05,0.01,0.07,0.01c0.1,0,0.2-0.07,0.21-0.17l0.27-2.06c0.04-0.25-0.12-0.48-0.37-0.55l-1.02-0.26 c-0.21-0.06-0.37-0.25-0.37-0.48l-0.05-2.53c-0.01-0.21,0.12-0.4,0.31-0.48l1.16-0.46c0.1-0.04,0.19-0.12,0.24-0.21l0.95-1.59 c0.09-0.15,0.25-0.24,0.43-0.24h0.08l1.42,0.24h0.08c0.22,0,0.41-0.13,0.48-0.33l0.24-0.72c0.07-0.19,0.23-0.32,0.43-0.34l3.39-0.3 h0.05c0.18,0,0.25,0.08,0.27,0.22l0.13,0.7c0.04,0.21,0.22,0.38,0.44,0.4l2.13,0.26h0.06c0.26,0,0.48-0.2,0.5-0.46l0.05-0.57 c0.02-0.26,0.23-0.46,0.49-0.46h0.96c0.23,0,0.43-0.15,0.49-0.38l0.31-1.3c0.05-0.2,0.22-0.36,0.43-0.38l1.44-0.17h0.06 c0.14,0,0.28,0.07,0.38,0.18l0.81,0.97c0.07,0.08,0.16,0.14,0.27,0.17l0.88,0.2c0.04,0.01,0.08,0.01,0.12,0.01 c0.24,0,0.45-0.17,0.49-0.42l0.09-0.58c0.04-0.24,0.25-0.42,0.49-0.42h0.03l1.56,0.08c0.18,0.01,0.34,0.12,0.42,0.28l0.72,1.41 c0.07,0.15,0.21,0.25,0.38,0.27l1.17,0.16c0.17,0.02,0.31,0.12,0.38,0.27l0.54,1.07c0.09,0.17,0.27,0.27,0.45,0.27 c0.04,0,0.09-0.01,0.13-0.02l1.15-0.32c0.1-0.03,0.19-0.08,0.25-0.16l0.58-0.7c0.1-0.12,0.25-0.18,0.39-0.18 c0.15,0,0.3,0.07,0.4,0.2l1.23,1.65c0.05,0.07,0.12,0.12,0.2,0.16l2.44,1.09c0.2,0.09,0.32,0.31,0.28,0.54l-0.24,1.53 c-0.04,0.21,0.07,0.41,0.25,0.52l0.49,0.26c0.18,0.1,0.28,0.29,0.26,0.49l-0.07,0.71c-0.01,0.12,0.09,0.25,0.22,0.25 c0.01,0,0.02,0,0.02,0l0.9-0.06c0.01-0.01,0.02-0.01,0.03-0.01c0.27,0,0.5,0.23,0.5,0.5v0.55c0,0.26,0.2,0.48,0.46,0.5l0.58,0.05 c0.24,0.02,0.43,0.2,0.45,0.44l0.16,1.52c0.02,0.25,0.24,0.45,0.49,0.45h1.8c0,0,0.01,0,0.02,0c0.26,0,0.39,0.16,0.39,0.43v0.58 c0.03,0.19,0.11,0.26,0.22,0.26l0.72-0.12c0.03,0,0.05-0.01,0.08-0.01c0.25,0,0.47,0.19,0.5,0.44l0.14,1.24 c0.02,0.17-0.04,0.33-0.17,0.44l-1.7,1.43c-0.11,0.1-0.18,0.24-0.18,0.39v7.14c0,0.26-0.2,0.47-0.46,0.49l-0.47,0.04 c-0.28,0.03-0.49,0.28-0.45,0.56l0.28,2.24c0.01,0.23-0.09,0.35-0.31,0.35c-0.01,0-0.02,0-0.02,0h-0.73c-0.16,0-0.2,0.11-0.17,0.29 l0.17,0.92c0.05,0.22-0.06,0.43-0.25,0.53c-0.27,0.15-0.63,0.43-0.87,0.96c-0.08,0.17-0.25,0.29-0.44,0.29h-0.04l-1.71-0.17h-0.05 c-0.2,0-0.37,0.11-0.46,0.29l-0.87,1.86c-0.01,0.02-0.01,0.03-0.02,0.04l-0.48,0.84c-0.07,0.13-0.2,0.22-0.35,0.25l-1.71,0.28h-0.08 c-0.12,0-0.24-0.04-0.33-0.12l-0.8-0.7c-0.07-0.06-0.16-0.1-0.25-0.12l-2.5-0.4c-0.02-0.01-0.05-0.01-0.08-0.01 c-0.14,0-0.27,0.06-0.37,0.16l-1.46,1.64c-0.04,0.03-0.08,0.05-0.12,0.05c-0.06,0-0.13-0.05-0.16-0.12l-0.47-1.11 c-0.02,0-0.11-0.08-0.24-0.12L54,43v30.85c0,0.3,0.24,0.5,0.5,0.5c0.11,0,0.22-0.03,0.31-0.11l5.36-4.14l-1.74-1.13 c-0.1-0.16-0.11-0.35-0.03-0.51l1.11-2.07l0.11-0.45l-1.95-0.66c-0.2-0.07-0.34-0.26-0.34-0.48v-1.85c0-0.23,0.15-0.43,0.37-0.49 l2.23-0.33c0.24-0.06,0.4-0.29,0.36-0.54c-0.05-0.4-0.06-0.94,0.24-0.94h2.66c0.19,0,0.36-0.11,0.44-0.28l0.35-0.68 c0.09-0.17,0.26-0.27,0.45-0.27h0.96c0.18,0,0.35,0.09,0.44,0.25l0.49,0.86c0.09,0.16,0.25,0.26,0.43,0.26h2 c0.04,0,0.07-0.01,0.11-0.02l2.39-0.49c0.04-0.01,0.07-0.01,0.1-0.01c0.1,0,0.2,0.02,0.28,0.08l4.67,3.12 c0.1,0.07,0.17,0.17,0.2,0.29l0.48,1.85c0.06,0.25-0.07,0.5-0.3,0.59l-2.88,1.15l0.71,1c0.05,0.06,0.11,0.11,0.17,0.15l2.14,1.17 c0.16,0.09,0.26,0.26,0.26,0.44C77.08,70.11,77.08,72.42,77.08,72.42z" />
</svg>